<?xml version="1.0" standalone="no"?>
<!DOCTYPE svg PUBLIC "-//W3C//DTD SVG 20010904//EN"
 "http://www.w3.org/TR/2001/REC-SVG-20010904/DTD/svg10.dtd">
<svg version="1.0" xmlns="http://www.w3.org/2000/svg"
 width="218.000000pt" height="218.000000pt" viewBox="0 0 218.000000 218.000000"
 preserveAspectRatio="xMidYMid meet">
<metadata>
Created by potrace 1.11, written by Peter Selinger 2001-2013
</metadata>
<g transform="translate(0.000000,218.000000) scale(0.100000,-0.100000)"
fill="#000000" stroke="none">
<path d="M0 1090 l0 -1090 370 0 370 0 0 113 c0 123 -11 180 -83 447 -70 257
-70 263 -62 403 6 108 11 135 35 185 28 60 125 177 163 199 31 17 64 16 75 -3
8 -15 13 -15 62 1 49 16 54 16 92 -1 22 -10 46 -30 54 -46 15 -29 16 -29 82
-22 64 6 69 5 94 -21 15 -15 30 -36 33 -46 4 -12 16 -19 31 -19 39 0 84 -51
84 -94 0 -29 5 -38 30 -51 47 -24 70 -70 70 -138 0 -56 1 -58 35 -74 42 -20
69 -71 60 -114 -5 -24 -1 -36 24 -65 21 -23 31 -45 31 -67 0 -18 7 -41 15 -51
8 -11 15 -39 15 -63 0 -36 4 -45 23 -52 13 -5 32 -25 41 -45 21 -44 44 -46 79
-6 31 34 75 40 130 17 40 -17 52 -13 104 34 35 32 50 39 84 39 l42 0 -5 200
c-4 144 -9 204 -19 216 -7 8 -34 26 -61 40 -26 13 -52 33 -58 43 -5 11 -9 73
-7 145 2 117 1 127 -20 147 -17 17 -37 24 -85 27 -53 4 -69 10 -105 39 -26 21
-48 52 -59 79 -18 48 -79 110 -118 120 -14 3 -56 -1 -95 -10 -38 -9 -108 -16
-155 -16 -72 0 -94 4 -151 30 -76 34 -92 36 -170 15 -57 -14 -127 -63 -140
-97 -10 -28 -33 -28 -82 -3 -25 14 -53 25 -61 25 -8 0 -35 -23 -61 -51 -28
-32 -66 -61 -98 -75 -74 -33 -86 -61 -77 -174 l6 -88 -32 -46 c-40 -55 -51
-126 -26 -174 19 -36 21 -94 4 -125 -6 -12 -24 -34 -40 -49 -33 -31 -35 -59
-8 -113 33 -64 22 -128 -31 -197 -30 -38 -36 -58 -19 -58 5 0 25 -13 43 -30
38 -33 54 -36 103 -18 29 10 37 9 71 -14 21 -14 49 -28 61 -32 18 -6 22 -14
20 -34 -2 -23 -9 -28 -37 -30 -23 -2 -43 3 -62 17 -19 14 -30 17 -35 10 -4 -8
-27 -9 -67 -4 -50 5 -68 13 -99 41 -21 19 -42 34 -47 34 -21 0 -41 33 -41 66
0 25 11 48 40 85 47 59 51 98 19 161 -19 37 -20 45 -8 86 7 26 28 63 47 84 37
41 37 44 6 131 -16 46 -16 52 0 109 9 33 27 74 40 92 22 29 24 37 19 123 -5
85 -4 95 20 135 20 34 38 50 86 72 38 17 72 42 92 67 52 66 120 87 180 55 25
-13 29 -11 70 25 24 21 55 42 69 47 137 49 163 51 224 23 97 -45 117 -51 173
-51 32 0 89 7 128 15 89 19 115 19 167 -1 60 -24 95 -59 129 -130 34 -69 68
-94 128 -94 65 0 119 -33 143 -88 19 -41 20 -59 14 -158 l-6 -111 40 -16 40
-15 0 609 0 609 -1090 0 -1090 0 0 -1090z"/>
<path d="M777 1230 c-56 -60 -95 -134 -104 -195 -5 -37 -3 -45 10 -45 9 0 19
5 22 10 10 15 45 12 45 -5 0 -8 8 -19 19 -24 27 -15 34 -41 16 -67 -30 -46
-105 -14 -105 45 0 21 -2 23 -10 11 -14 -22 -12 -116 4 -174 8 -28 22 -82 31
-121 20 -89 33 -135 56 -210 36 -115 49 -199 49 -327 l0 -128 366 0 367 0 -6
34 c-6 35 14 66 41 66 16 0 32 -34 32 -69 l0 -31 285 0 285 0 -2 192 c-3 179
-4 193 -22 196 -11 2 -33 -10 -55 -31 -59 -58 -112 -70 -175 -40 -35 16 -36
16 -62 -10 -30 -30 -90 -50 -137 -45 -29 3 -33 7 -41 45 -6 24 -14 43 -18 43
-5 0 -20 11 -33 25 -19 18 -25 35 -25 67 0 24 -7 52 -15 62 -8 11 -15 34 -15
51 0 23 -10 42 -36 69 -34 35 -35 39 -29 85 6 47 6 48 -25 61 -46 19 -60 46
-60 116 0 60 -17 94 -48 94 -20 0 -52 52 -52 85 0 38 -14 52 -55 57 -22 2 -35
13 -52 43 l-22 40 -73 -3 c-81 -3 -89 0 -109 43 -18 38 -39 42 -92 16 -54 -26
-64 -26 -79 -1 -7 11 -15 20 -19 20 -3 0 -26 -22 -52 -50z m420 -269 c3 -11
11 -22 19 -25 8 -3 14 -19 14 -36 0 -42 -35 -58 -79 -36 -24 13 -31 23 -31 47
0 17 5 39 10 50 14 26 60 26 67 0z m-427 -131 c0 -11 -40 -34 -47 -26 -3 3 -3
12 0 21 7 16 47 21 47 5z m112 -56 c2 -42 8 -60 21 -68 23 -15 37 6 37 57 0
26 4 37 13 35 26 -9 20 -93 -9 -122 -22 -22 -41 -20 -69 9 -20 20 -25 34 -25
78 0 29 3 57 7 60 16 16 22 3 25 -49z m326 -23 c6 -17 -54 -13 -68 4 -20 24
-3 35 32 20 18 -7 34 -18 36 -24z m-131 -238 c6 -18 -56 -33 -139 -33 -59 0
-79 3 -76 13 3 8 35 14 91 18 48 3 90 9 94 13 9 9 26 3 30 -11z m-57 -83 c13
-9 13 -11 0 -20 -29 -19 -80 -4 -66 19 9 14 46 14 66 1z"/>
<path d="M1157 943 c-14 -13 -7 -43 12 -53 24 -12 31 -3 24 33 -5 26 -22 35
-36 20z"/>
<path d="M714 965 c-8 -20 2 -44 21 -51 24 -10 29 2 14 35 -15 34 -27 39 -35
16z"/>
</g>
</svg>
